<svg width="25" height="24" viewBox="0 0 25 24" fill="none" xmlns="http://www.w3.org/2000/svg">
<path d="M10.6663 12.71C10.5726 12.617 10.4982 12.5064 10.4474 12.3846C10.3967 12.2627 10.3705 12.132 10.3705 12C10.3705 11.868 10.3967 11.7373 10.4474 11.6154C10.4982 11.4936 10.5726 11.383 10.6663 11.29L15.2563 6.71C15.3501 6.61704 15.4245 6.50644 15.4752 6.38458C15.526 6.26272 15.5521 6.13201 15.5521 6C15.5521 5.86799 15.526 5.73728 15.4752 5.61542C15.4245 5.49356 15.3501 5.38296 15.2563 5.29C15.069 5.10375 14.8155 4.99921 14.5513 4.99921C14.2871 4.99921 14.0337 5.10375 13.8463 5.29L9.25633 9.88C8.69452 10.4425 8.37897 11.205 8.37897 12C8.37897 12.795 8.69452 13.5575 9.25633 14.12L13.8463 18.71C14.0326 18.8947 14.284 18.9989 14.5463 19C14.6779 19.0008 14.8084 18.9755 14.9302 18.9258C15.0521 18.876 15.1629 18.8027 15.2563 18.71C15.3501 18.617 15.4245 18.5064 15.4752 18.3846C15.526 18.2627 15.5521 18.132 15.5521 18C15.5521 17.868 15.526 17.7373 15.4752 17.6154C15.4245 17.4936 15.3501 17.383 15.2563 17.29L10.6663 12.71Z" fill="#212121"/>
</svg>
