<svg viewBox="0 0 17 14" fill="none" xmlns="http://www.w3.org/2000/svg">
<path d="M17.0013 6.99999C16.9956 6.3862 16.7483 5.79937 16.313 5.36666L11.308 0.35C11.0894 0.132708 10.7937 0.0107422 10.4855 0.0107422C10.1773 0.0107422 9.88156 0.132708 9.66297 0.35C9.55362 0.458457 9.46683 0.587491 9.4076 0.72966C9.34837 0.871829 9.31787 1.02432 9.31787 1.17833C9.31787 1.33235 9.34837 1.48484 9.4076 1.627C9.46683 1.76917 9.55362 1.89821 9.66297 2.00666L13.5013 5.83333H1.83464C1.52522 5.83333 1.22847 5.95624 1.00968 6.17504C0.790885 6.39383 0.667969 6.69057 0.667969 6.99999C0.667969 7.30941 0.790885 7.60616 1.00968 7.82495C1.22847 8.04374 1.52522 8.16666 1.83464 8.16666H13.5013L9.66297 12.005C9.44328 12.2231 9.31925 12.5196 9.31815 12.8292C9.31706 13.1388 9.43899 13.4361 9.65714 13.6558C9.87528 13.8755 10.1718 13.9995 10.4813 14.0006C10.7909 14.0017 11.0883 13.8798 11.308 13.6617L16.313 8.64499C16.7512 8.20942 16.9987 7.61783 17.0013 6.99999Z" fill="#00144B"/>
</svg>
