<svg width="12" height="12" viewBox="0 0 12 12" fill="none" xmlns="http://www.w3.org/2000/svg">
<path d="M9.23443 7.34322L9.2309 4.3062C9.23011 4.04202 9.12481 3.78888 8.93801 3.60207C8.7512 3.41526 8.49806 3.30997 8.23388 3.30918L5.19685 3.30564C5.06476 3.30604 4.93819 3.35869 4.84479 3.45209C4.75138 3.54549 4.69873 3.67206 4.69834 3.80416C4.69807 3.87016 4.71087 3.93557 4.73601 3.9966C4.76114 4.05763 4.79811 4.11309 4.84478 4.15976C4.89146 4.20643 4.94691 4.2434 5.00794 4.26854C5.06898 4.29367 5.13438 4.30647 5.20039 4.3062H7.52677L3.63768 8.19529C3.54391 8.28906 3.49123 8.41623 3.49123 8.54884C3.49123 8.68145 3.54391 8.80863 3.63768 8.90239C3.73145 8.99616 3.85863 9.04884 3.99123 9.04884C4.12384 9.04884 4.25102 8.99616 4.34479 8.90239L8.23388 5.01331L8.23388 7.33969C8.23341 7.47237 8.28566 7.5998 8.37915 7.69396C8.47264 7.78811 8.5997 7.84127 8.73239 7.84173C8.86507 7.8422 8.9925 7.78995 9.08665 7.69646C9.18081 7.60297 9.23396 7.47591 9.23443 7.34322Z" fill="#002387"/>
</svg>
