<svg width="12" height="12" viewBox="0 0 12 12" fill="none" xmlns="http://www.w3.org/2000/svg">
<path d="M3.20493 4.5H8.79494C8.89382 4.50041 8.99036 4.53014 9.07236 4.58542C9.15435 4.6407 9.21811 4.71906 9.25557 4.81057C9.29303 4.90209 9.30252 5.00266 9.28282 5.09957C9.26313 5.19647 9.21515 5.28536 9.14494 5.355L6.35494 8.14499C6.30845 8.19186 6.25315 8.22905 6.19222 8.25444C6.13129 8.27982 6.06594 8.29289 5.99994 8.29289C5.93393 8.29289 5.86858 8.27982 5.80765 8.25444C5.74672 8.22905 5.69142 8.19186 5.64494 8.14499L2.85494 5.355C2.78472 5.28536 2.73674 5.19647 2.71705 5.09957C2.69735 5.00266 2.70684 4.90209 2.7443 4.81057C2.78176 4.71906 2.84552 4.6407 2.92751 4.58542C3.00951 4.53014 3.10605 4.50041 3.20493 4.5Z" fill="white"/>
</svg>
