<svg xmlns="http://www.w3.org/2000/svg">
<path d="M11.7268 5.33344L4.27342 5.33343C4.14157 5.33399 4.01285 5.37362 3.90353 5.44733C3.7942 5.52104 3.70919 5.62551 3.65924 5.74753C3.60929 5.86955 3.59664 6.00365 3.6229 6.13285C3.64916 6.26206 3.71314 6.38058 3.80675 6.47343L7.52675 10.1934C7.58873 10.2559 7.66246 10.3055 7.7437 10.3394C7.82494 10.3732 7.91208 10.3906 8.00009 10.3906C8.08809 10.3906 8.17523 10.3732 8.25647 10.3394C8.33771 10.3055 8.41144 10.2559 8.47342 10.1934L12.1934 6.47343C12.287 6.38059 12.351 6.26206 12.3773 6.13286C12.4035 6.00365 12.3909 5.86955 12.3409 5.74753C12.291 5.62551 12.206 5.52104 12.0966 5.44733C11.9873 5.37362 11.8586 5.33399 11.7268 5.33344Z" />
</svg>
