<svg width="16" height="16" viewBox="0 0 16 16" fill="none" xmlns="http://www.w3.org/2000/svg">
<path d="M12.6667 1H3.33333C2.71449 1 2.121 1.24583 1.68342 1.68342C1.24583 2.121 1 2.71449 1 3.33333L1 10.3333C1 10.9522 1.24583 11.5457 1.68342 11.9832C2.121 12.4208 2.71449 12.6667 3.33333 12.6667H5.025L7.62142 14.8617C7.72675 14.9509 7.86026 14.9998 7.99825 14.9998C8.13624 14.9998 8.26975 14.9509 8.37508 14.8617L10.975 12.6667H12.6667C13.2855 12.6667 13.879 12.4208 14.3166 11.9832C14.7542 11.5457 15 10.9522 15 10.3333V3.33333C15 2.71449 14.7542 2.121 14.3166 1.68342C13.879 1.24583 13.2855 1 12.6667 1V1ZM5.08333 3.91667H8C8.15471 3.91667 8.30308 3.97812 8.41248 4.08752C8.52187 4.19692 8.58333 4.34529 8.58333 4.5C8.58333 4.65471 8.52187 4.80308 8.41248 4.91248C8.30308 5.02187 8.15471 5.08333 8 5.08333H5.08333C4.92862 5.08333 4.78025 5.02187 4.67085 4.91248C4.56146 4.80308 4.5 4.65471 4.5 4.5C4.5 4.34529 4.56146 4.19692 4.67085 4.08752C4.78025 3.97812 4.92862 3.91667 5.08333 3.91667ZM10.9167 9.75H5.08333C4.92862 9.75 4.78025 9.68854 4.67085 9.57915C4.56146 9.46975 4.5 9.32138 4.5 9.16667C4.5 9.01196 4.56146 8.86358 4.67085 8.75419C4.78025 8.64479 4.92862 8.58333 5.08333 8.58333H10.9167C11.0714 8.58333 11.2197 8.64479 11.3291 8.75419C11.4385 8.86358 11.5 9.01196 11.5 9.16667C11.5 9.32138 11.4385 9.46975 11.3291 9.57915C11.2197 9.68854 11.0714 9.75 10.9167 9.75ZM10.9167 7.41667H5.08333C4.92862 7.41667 4.78025 7.35521 4.67085 7.24581C4.56146 7.13642 4.5 6.98804 4.5 6.83333C4.5 6.67862 4.56146 6.53025 4.67085 6.42085C4.78025 6.31146 4.92862 6.25 5.08333 6.25H10.9167C11.0714 6.25 11.2197 6.31146 11.3291 6.42085C11.4385 6.53025 11.5 6.67862 11.5 6.83333C11.5 6.98804 11.4385 7.13642 11.3291 7.24581C11.2197 7.35521 11.0714 7.41667 10.9167 7.41667Z" fill="#00144B"/>
</svg>
