<svg width="44" height="44" viewBox="0 0 44 44" fill="none" xmlns="http://www.w3.org/2000/svg">
<g clip-path="url(#clip0_1704_12556)">
<path d="M22.0002 14.5673C23.5423 14.5673 24.7924 13.3172 24.7924 11.7751C24.7924 10.233 23.5423 8.98291 22.0002 8.98291C20.4581 8.98291 19.208 10.233 19.208 11.7751C19.208 13.3172 20.4581 14.5673 22.0002 14.5673Z" fill="white"/>
<path d="M36.6668 0.0012207H7.33344C3.25665 0.0334473 -0.024271 3.36035 0.000135297 7.43722V29.7488C-0.024271 33.826 3.25639 37.1534 7.33344 37.1866H12.6922L19.5635 43.0533C20.9246 44.2972 23.0044 44.3154 24.3871 43.0955L31.4362 37.1848H36.6667C40.7438 37.1516 44.0245 33.8242 44 29.747V7.43722C44.0245 3.36035 40.7436 0.0334473 36.6668 0.0012207ZM22.0001 5.57822C30.4609 5.80192 30.4591 18.3694 22.0001 18.5949C13.5393 18.3693 13.5411 5.80733 22.0001 5.57822ZM29.7899 31.5492C28.8089 31.7996 27.8106 31.2071 27.5603 30.226C27.5592 30.2216 27.5581 30.2172 27.5569 30.2127C26.6186 27.1433 23.3695 25.4157 20.3001 26.354C18.4525 26.9189 17.0063 28.3651 16.4414 30.2127C16.1853 31.1928 15.1831 31.7797 14.2029 31.5235C13.2228 31.2673 12.636 30.2651 12.8921 29.285C14.3098 24.2543 19.5372 21.3253 24.5679 22.7429C27.7385 23.6364 30.2164 26.1144 31.1099 29.285C31.3652 30.274 30.7763 31.284 29.7899 31.5492Z" fill="white"/>
</g>
<defs>
<clipPath id="clip0_1704_12556">
<rect width="44" height="44" fill="white"/>
</clipPath>
</defs>
</svg>
