<svg width="10" height="10" viewBox="0 0 10 10" fill="none" xmlns="http://www.w3.org/2000/svg">
<g clip-path="url(#clip0_548_5258)">
<path d="M0 7.91699C0.000661607 8.46932 0.220367 8.99884 0.610925 9.3894C1.00148 9.77996 1.531 9.99966 2.08333 10.0003H7.91667C8.469 9.99966 8.99852 9.77996 9.38908 9.3894C9.77963 8.99884 9.99934 8.46932 10 7.91699V4.16699H0V7.91699ZM7.08333 6.04199C7.20695 6.04199 7.32778 6.07865 7.43056 6.14732C7.53335 6.216 7.61345 6.31361 7.66076 6.42782C7.70806 6.54202 7.72044 6.66769 7.69632 6.78892C7.67221 6.91016 7.61268 7.02153 7.52527 7.10893C7.43787 7.19634 7.3265 7.25587 7.20526 7.27998C7.08403 7.3041 6.95836 7.29172 6.84416 7.24442C6.72995 7.19711 6.63234 7.117 6.56366 7.01422C6.49499 6.91144 6.45833 6.79061 6.45833 6.66699C6.45833 6.50123 6.52418 6.34226 6.64139 6.22505C6.7586 6.10784 6.91757 6.04199 7.08333 6.04199ZM5 6.04199C5.12361 6.04199 5.24445 6.07865 5.34723 6.14732C5.45001 6.216 5.53012 6.31361 5.57742 6.42782C5.62473 6.54202 5.63711 6.66769 5.61299 6.78892C5.58887 6.91016 5.52935 7.02153 5.44194 7.10893C5.35453 7.19634 5.24317 7.25587 5.12193 7.27998C5.00069 7.3041 4.87503 7.29172 4.76082 7.24442C4.64662 7.19711 4.54901 7.117 4.48033 7.01422C4.41166 6.91144 4.375 6.79061 4.375 6.66699C4.375 6.50123 4.44085 6.34226 4.55806 6.22505C4.67527 6.10784 4.83424 6.04199 5 6.04199ZM2.91667 6.04199C3.04028 6.04199 3.16112 6.07865 3.2639 6.14732C3.36668 6.216 3.44679 6.31361 3.49409 6.42782C3.5414 6.54202 3.55377 6.66769 3.52966 6.78892C3.50554 6.91016 3.44602 7.02153 3.35861 7.10893C3.2712 7.19634 3.15984 7.25587 3.0386 7.27998C2.91736 7.3041 2.79169 7.29172 2.67749 7.24442C2.56329 7.19711 2.46567 7.117 2.397 7.01422C2.32832 6.91144 2.29167 6.79061 2.29167 6.66699C2.29167 6.50123 2.35751 6.34226 2.47472 6.22505C2.59194 6.10784 2.75091 6.04199 2.91667 6.04199V6.04199Z" fill="#111111" fill-opacity="0.6"/>
<path d="M7.91667 0.833333H7.5V0.416667C7.5 0.30616 7.4561 0.200179 7.37796 0.122039C7.29982 0.0438987 7.19384 0 7.08333 0C6.97283 0 6.86685 0.0438987 6.78871 0.122039C6.71056 0.200179 6.66667 0.30616 6.66667 0.416667V0.833333H3.33333V0.416667C3.33333 0.30616 3.28943 0.200179 3.21129 0.122039C3.13315 0.0438987 3.02717 0 2.91667 0C2.80616 0 2.70018 0.0438987 2.62204 0.122039C2.5439 0.200179 2.5 0.30616 2.5 0.416667V0.833333H2.08333C1.531 0.833995 1.00148 1.0537 0.610925 1.44426C0.220367 1.83482 0.000661607 2.36434 0 2.91667L0 3.33333H10V2.91667C9.99934 2.36434 9.77963 1.83482 9.38908 1.44426C8.99852 1.0537 8.469 0.833995 7.91667 0.833333V0.833333Z" fill="#111111" fill-opacity="0.6"/>
</g>
<defs>
<clipPath id="clip0_548_5258">
<rect width="10" height="10" fill="white"/>
</clipPath>
</defs>
</svg>
