<svg width="30" height="30" viewBox="0 0 30 30" xmlns="http://www.w3.org/2000/svg">
<path d="M15 0C12.0333 0 9.13319 0.879735 6.66645 2.52796C4.19972 4.17618 2.27713 6.51886 1.14181 9.25975C0.00649929 12.0006 -0.290551 15.0166 0.288228 17.9264C0.867006 20.8361 2.29562 23.5088 4.39341 25.6066C6.49119 27.7044 9.16394 29.133 12.0737 29.7118C14.9834 30.2906 17.9994 29.9935 20.7403 28.8582C23.4812 27.7229 25.8238 25.8003 27.4721 23.3336C29.1203 20.8668 30 17.9667 30 15C29.9957 11.0231 28.414 7.21026 25.6019 4.39815C22.7897 1.58604 18.9769 0.00430135 15 0V0ZM10 10C10.663 10 11.2989 10.2634 11.7678 10.7322C12.2366 11.2011 12.5 11.837 12.5 12.5C12.5 13.75 11.3813 13.75 10 13.75C8.61876 13.75 7.50001 13.75 7.50001 12.5C7.50001 11.837 7.7634 11.2011 8.23224 10.7322C8.70108 10.2634 9.33697 10 10 10V10ZM22.0825 19.6825C20.0977 21.3782 17.6072 22.3689 15 22.5C12.3928 22.3689 9.90234 21.3782 7.91751 19.6825C7.67019 19.4617 7.52072 19.1517 7.50196 18.8207C7.49268 18.6568 7.51576 18.4927 7.5699 18.3377C7.62405 18.1828 7.70818 18.04 7.81751 17.9175C7.92683 17.795 8.05921 17.6953 8.20707 17.624C8.35494 17.5527 8.5154 17.5112 8.6793 17.502C9.0103 17.4832 9.33519 17.5967 9.58251 17.8175C11.1103 19.1026 13.008 19.8672 15 20C16.9932 19.8671 18.8919 19.1016 20.42 17.815C20.5426 17.7058 20.6856 17.6219 20.8406 17.568C20.9957 17.514 21.1598 17.4912 21.3237 17.5007C21.4876 17.5102 21.648 17.5519 21.7958 17.6234C21.9436 17.695 22.0758 17.7949 22.185 17.9175C22.2942 18.0401 22.3781 18.183 22.432 18.3381C22.486 18.4932 22.5088 18.6573 22.4993 18.8212C22.4898 18.9851 22.4481 19.1455 22.3766 19.2933C22.3051 19.4411 22.2051 19.5733 22.0825 19.6825V19.6825ZM20 13.75C18.6188 13.75 17.5 13.75 17.5 12.5C17.5 11.837 17.7634 11.2011 18.2322 10.7322C18.7011 10.2634 19.337 10 20 10C20.663 10 21.2989 10.2634 21.7678 10.7322C22.2366 11.2011 22.5 11.837 22.5 12.5C22.5 13.75 21.3813 13.75 20 13.75Z"/>
</svg>
