<svg viewBox="0 0 30 30" fill="none" xmlns="http://www.w3.org/2000/svg">
<path fill-rule="evenodd" clip-rule="evenodd" d="M6.6665 2.52808C9.13318 0.879639 12.0333 0 15 0C18.9769 0.00439453 22.7898 1.58594 25.6018 4.39819C28.4139 7.21021 29.9957 11.0232 30 15C30 17.9668 29.1202 20.8667 27.472 23.3335C25.8239 25.8003 23.4812 27.7229 20.7402 28.8582C17.9994 29.9934 14.9834 30.2905 12.0736 29.7117C9.16394 29.1331 6.49121 27.7043 4.39343 25.6067C2.29566 23.5088 0.867066 20.8362 0.288209 17.9263C-0.290527 15.0166 0.00647043 12.0007 1.14185 9.25977C2.2771 6.5188 4.19971 4.17627 6.6665 2.52808ZM15 22.5C17.6072 22.3689 20.0977 21.3782 22.0825 19.6826C22.2051 19.5732 22.3051 19.4412 22.3766 19.2932C22.4481 19.1455 22.4897 18.9851 22.4993 18.8213C22.5088 18.6572 22.486 18.4932 22.432 18.3381C22.3781 18.1831 22.2942 18.04 22.1851 17.9175C22.0758 17.7949 21.9436 17.6951 21.7958 17.6235C21.6481 17.552 21.4877 17.5103 21.3237 17.5007C21.2419 17.4961 21.16 17.4993 21.0793 17.5105C20.9983 17.5217 20.9183 17.541 20.8406 17.5679C20.6855 17.6218 20.5426 17.7058 20.42 17.8149C18.892 19.1016 16.9932 19.8669 15 20C13.0081 19.8672 11.1102 19.1025 9.58252 17.8174C9.33521 17.5967 9.01025 17.4832 8.67932 17.502C8.51538 17.5112 8.35498 17.5527 8.20703 17.624C8.05921 17.6953 7.92688 17.7949 7.81751 17.9175C7.70813 18.04 7.62402 18.1829 7.56995 18.3376C7.51575 18.4927 7.49268 18.6567 7.50195 18.8208C7.52075 19.1516 7.67017 19.4617 7.91748 19.6826C9.90234 21.3782 12.3928 22.3689 15 22.5ZM12 13C12 14.1046 11.1046 15 10 15C8.89543 15 8 14.1046 8 13C8 11.8954 8.89543 11 10 11C11.1046 11 12 11.8954 12 13ZM20 15C21.1046 15 22 14.1046 22 13C22 11.8954 21.1046 11 20 11C18.8954 11 18 11.8954 18 13C18 14.1046 18.8954 15 20 15Z" fill="white"/>
</svg>
