<svg  viewBox="0 0 18 18" fill="none" xmlns="http://www.w3.org/2000/svg">
<g clip-path="url(#clip0_1525_13122)">
<path d="M13.1252 1.43738C12.2807 1.45051 11.4546 1.68627 10.7303 2.12083C10.006 2.55539 9.40923 3.17338 9.00021 3.91238C8.59119 3.17338 7.99441 2.55539 7.27014 2.12083C6.54587 1.68627 5.71975 1.45051 4.87521 1.43738C3.52892 1.49587 2.26049 2.08482 1.34705 3.07555C0.433607 4.06629 -0.0506 5.37827 0.000212859 6.72488C0.000212859 10.1351 3.58971 13.8596 6.60021 16.3849C7.27238 16.9497 8.12223 17.2594 9.00021 17.2594C9.8782 17.2594 10.728 16.9497 11.4002 16.3849C14.4107 13.8596 18.0002 10.1351 18.0002 6.72488C18.051 5.37827 17.5668 4.06629 16.6534 3.07555C15.7399 2.08482 14.4715 1.49587 13.1252 1.43738Z"  fill-opacity="0.28"/>
</g>
<defs>
<clipPath id="clip0_1525_13122">
<rect width="18" height="18" fill="white"/>
</clipPath>
</defs>
</svg>
