<svg width="16" height="16" viewBox="0 0 16 16" xmlns="http://www.w3.org/2000/svg">
<g clip-path="url(#clip0_570_11554)">
<path d="M11.666 1.27734C10.9153 1.28902 10.181 1.49858 9.53716 1.88486C8.89336 2.27114 8.3629 2.82046 7.99932 3.47734C7.63575 2.82046 7.10528 2.27114 6.46148 1.88486C5.81768 1.49858 5.08335 1.28902 4.33265 1.27734C3.13595 1.32934 2.00846 1.85285 1.19651 2.7335C0.384561 3.61415 -0.0458459 4.78036 -0.000678848 5.97734C-0.000678848 9.00868 3.18999 12.3193 5.86599 14.564C6.46347 15.0661 7.21889 15.3414 7.99932 15.3414C8.77975 15.3414 9.53518 15.0661 10.1327 14.564C12.8087 12.3193 15.9993 9.00868 15.9993 5.97734C16.0445 4.78036 15.6141 3.61415 14.8021 2.7335C13.9902 1.85285 12.8627 1.32934 11.666 1.27734ZM9.27599 13.544C8.91864 13.8449 8.46649 14.0099 7.99932 14.0099C7.53215 14.0099 7.08 13.8449 6.72265 13.544C3.29732 10.67 1.33265 7.91268 1.33265 5.97734C1.28708 5.13382 1.5769 4.3065 2.1389 3.67581C2.70089 3.04512 3.48948 2.66224 4.33265 2.61068C5.17583 2.66224 5.96441 3.04512 6.52641 3.67581C7.08841 4.3065 7.37823 5.13382 7.33265 5.97734C7.33265 6.15415 7.40289 6.32372 7.52792 6.44875C7.65294 6.57377 7.82251 6.64401 7.99932 6.64401C8.17613 6.64401 8.3457 6.57377 8.47073 6.44875C8.59575 6.32372 8.66599 6.15415 8.66599 5.97734C8.62041 5.13382 8.91023 4.3065 9.47223 3.67581C10.0342 3.04512 10.8228 2.66224 11.666 2.61068C12.5092 2.66224 13.2977 3.04512 13.8597 3.67581C14.4217 4.3065 14.7116 5.13382 14.666 5.97734C14.666 7.91268 12.7013 10.67 9.27599 13.5413V13.544Z"/>
</g>
<defs>
<clipPath id="clip0_570_11554">
<rect width="16" height="16" fill="white"/>
</clipPath>
</defs>
</svg>
