<svg width="14" height="14" viewBox="0 0 14 14" fill="none" xmlns="http://www.w3.org/2000/svg">
<g clip-path="url(#clip0_1475_10458)">
<path d="M12.25 7H10.5C10.1906 7 9.89383 7.12292 9.67504 7.34171C9.45625 7.5605 9.33333 7.85725 9.33333 8.16667C9.33333 8.47609 9.21042 8.77283 8.99162 8.99162C8.77283 9.21042 8.47609 9.33333 8.16667 9.33333H5.83333C5.52391 9.33333 5.22717 9.21042 5.00838 8.99162C4.78958 8.77283 4.66667 8.47609 4.66667 8.16667C4.66667 7.85725 4.54375 7.5605 4.32496 7.34171C4.10617 7.12292 3.80942 7 3.5 7H1.75C1.28587 7 0.840752 7.18437 0.512563 7.51256C0.184374 7.84075 0 8.28587 0 8.75L0 11.0833C0.00092625 11.8566 0.308514 12.5979 0.855295 13.1447C1.40208 13.6915 2.1434 13.9991 2.91667 14H11.0833C11.8566 13.9991 12.5979 13.6915 13.1447 13.1447C13.6915 12.5979 13.9991 11.8566 14 11.0833V8.75C14 8.28587 13.8156 7.84075 13.4874 7.51256C13.1592 7.18437 12.7141 7 12.25 7ZM12.8333 11.0833C12.8333 11.5475 12.649 11.9926 12.3208 12.3208C11.9926 12.649 11.5475 12.8333 11.0833 12.8333H2.91667C2.45254 12.8333 2.00742 12.649 1.67923 12.3208C1.35104 11.9926 1.16667 11.5475 1.16667 11.0833V8.75C1.16667 8.59529 1.22812 8.44692 1.33752 8.33752C1.44692 8.22812 1.59529 8.16667 1.75 8.16667H3.5C3.5 8.78551 3.74583 9.379 4.18342 9.81658C4.621 10.2542 5.21449 10.5 5.83333 10.5H8.16667C8.78551 10.5 9.379 10.2542 9.81658 9.81658C10.2542 9.379 10.5 8.78551 10.5 8.16667H12.25C12.4047 8.16667 12.5531 8.22812 12.6625 8.33752C12.7719 8.44692 12.8333 8.59529 12.8333 8.75V11.0833Z" fill="#7E7E77"/>
<path d="M1.74996 5.83317H12.25C12.4047 5.83317 12.553 5.77171 12.6624 5.66231C12.7718 5.55292 12.8333 5.40455 12.8333 5.24984C12.8333 5.09513 12.7718 4.94675 12.6624 4.83736C12.553 4.72796 12.4047 4.6665 12.25 4.6665H1.74996C1.59525 4.6665 1.44688 4.72796 1.33748 4.83736C1.22808 4.94675 1.16663 5.09513 1.16663 5.24984C1.16663 5.40455 1.22808 5.55292 1.33748 5.66231C1.44688 5.77171 1.59525 5.83317 1.74996 5.83317Z" fill="#7E7E77"/>
<path d="M1.74996 3.50016H12.25C12.4047 3.50016 12.553 3.4387 12.6624 3.32931C12.7718 3.21991 12.8333 3.07154 12.8333 2.91683C12.8333 2.76212 12.7718 2.61375 12.6624 2.50435C12.553 2.39495 12.4047 2.3335 12.25 2.3335H1.74996C1.59525 2.3335 1.44688 2.39495 1.33748 2.50435C1.22808 2.61375 1.16663 2.76212 1.16663 2.91683C1.16663 3.07154 1.22808 3.21991 1.33748 3.32931C1.44688 3.4387 1.59525 3.50016 1.74996 3.50016Z" fill="#7E7E77"/>
</g>
<defs>
<clipPath id="clip0_1475_10458">
<rect width="14" height="14" fill="white"/>
</clipPath>
</defs>
</svg>
