<svg viewBox="0 0 16 16" xmlns="http://www.w3.org/2000/svg">
<g clip-path="url(#clip0_529_6454)">
<path d="M9.23234 11.5096L7.05794 13.684C5.73144 14.975 3.60953 14.9463 2.3185 13.6198C1.05237 12.3189 1.05208 10.2465 2.31784 8.94525L4.49224 6.76886C4.75253 6.50839 4.75237 6.08625 4.4919 5.82597C4.23143 5.56569 3.80929 5.56584 3.54901 5.82631L1.37527 8.00271C-0.453864 9.83277 -0.453114 12.7991 1.37692 14.6283C3.20696 16.4574 6.17333 16.4566 8.00249 14.6266L10.1769 12.4522C10.4326 12.1874 10.4253 11.7654 10.1605 11.5097C9.9022 11.2602 9.49266 11.2602 9.23434 11.5097H9.23234V11.5096Z"/>
<path d="M14.6299 1.37386C13.7538 0.491678 12.5609 -0.00307683 11.3176 1.65573e-05C10.075 -0.00329555 8.8826 0.490428 8.00601 1.3712L5.82827 3.54626C5.5678 3.80654 5.56764 4.22868 5.82792 4.48915C6.0882 4.74962 6.51034 4.74977 6.77081 4.48949L8.94721 2.31509C9.57405 1.68448 10.4271 1.33092 11.3163 1.3332C13.1673 1.33383 14.6674 2.83487 14.6668 4.6859C14.6665 5.5743 14.3135 6.42626 13.6853 7.05453L11.5109 9.22894C11.2504 9.48941 11.2504 9.9117 11.5109 10.1722C11.7714 10.4326 12.1937 10.4326 12.4541 10.1722L14.6285 7.99908C16.4551 6.16854 16.4557 3.20508 14.6299 1.37386Z"/>
<path d="M9.53115 5.52792L5.53162 9.52745C5.26681 9.7832 5.2595 10.2052 5.51525 10.47C5.771 10.7348 6.19301 10.7421 6.45779 10.4864C6.46336 10.481 6.46879 10.4756 6.47417 10.47L10.4737 6.47047C10.7294 6.20565 10.7221 5.78367 10.4573 5.52792C10.199 5.27845 9.78949 5.27845 9.53115 5.52792Z"/>
</g>
<defs>
<clipPath id="clip0_529_6454">
<rect width="16" height="16"/>
</clipPath>
</defs>
</svg>
