<svg width="10" height="10" viewBox="0 0 10 10" fill="none" xmlns="http://www.w3.org/2000/svg">
<g clip-path="url(#clip0_548_5255)">
<path d="M4.99859 0.0175781C3.89607 0.0187911 2.83904 0.457276 2.0594 1.23684C1.27976 2.0164 0.841167 3.07339 0.839844 4.17591C0.839844 5.24675 1.66901 6.92258 3.30443 9.15674C3.49912 9.42347 3.75403 9.64045 4.04843 9.79004C4.34282 9.93963 4.66838 10.0176 4.99859 10.0176C5.32881 10.0176 5.65437 9.93963 5.94876 9.79004C6.24315 9.64045 6.49807 9.42347 6.69276 9.15674C8.32818 6.92258 9.15734 5.24675 9.15734 4.17591C9.15602 3.07339 8.71743 2.0164 7.93779 1.23684C7.15815 0.457276 6.10112 0.0187911 4.99859 0.0175781ZM4.99859 5.83341C4.66896 5.83341 4.34673 5.73566 4.07264 5.55253C3.79856 5.36939 3.58494 5.10909 3.45879 4.80455C3.33265 4.50001 3.29964 4.1649 3.36395 3.84159C3.42826 3.51829 3.58699 3.22132 3.82008 2.98823C4.05317 2.75515 4.35014 2.59641 4.67344 2.5321C4.99675 2.46779 5.33186 2.5008 5.6364 2.62695C5.94094 2.75309 6.20124 2.96671 6.38438 3.24079C6.56751 3.51488 6.66526 3.83711 6.66526 4.16675C6.66526 4.60877 6.48967 5.0327 6.17711 5.34526C5.86454 5.65782 5.44062 5.83341 4.99859 5.83341Z" fill="#111111" fill-opacity="0.6"/>
</g>
<defs>
<clipPath id="clip0_548_5255">
<rect width="10" height="10" fill="white"/>
</clipPath>
</defs>
</svg>
