<svg width="44" height="44" viewBox="0 0 44 44" fill="none" xmlns="http://www.w3.org/2000/svg">
<path d="M34.8326 15.444V12.8333C34.8326 5.74569 29.087 0 21.9993 0C14.9116 0 9.16602 5.74569 9.16602 12.8333V15.444C5.82941 16.9002 3.67083 20.1928 3.66602 23.8333V34.8333C3.67203 39.8934 7.77254 43.994 12.8326 44H31.1659C36.226 43.994 40.3265 39.8934 40.3326 34.8333V23.8333C40.3279 20.1928 38.1692 16.9002 34.8326 15.444ZM23.8326 31.1667C23.8326 32.1792 23.0118 33 21.9993 33C20.9868 33 20.166 32.1792 20.166 31.1667V27.5C20.166 26.4875 20.9868 25.6667 21.9993 25.6667C23.0118 25.6667 23.8326 26.4875 23.8326 27.5V31.1667ZM31.166 14.6667H12.8326V12.8334C12.8326 7.77081 16.9367 3.6667 21.9993 3.6667C27.062 3.6667 31.166 7.77073 31.166 12.8334V14.6667Z" fill="#FFEE1A"/>
</svg>
