<svg width="16" height="16" viewBox="0 0 16 16" xmlns="http://www.w3.org/2000/svg">
<path fill-rule="evenodd" clip-rule="evenodd" d="M13.3109 1.41416C12.5298 0.633107 11.2635 0.633107 10.4824 1.41416L9.15533 2.74125L9.13544 2.72135L8.35001 3.50678L8.36991 3.52668L1.59298 10.3036C1.32469 10.5719 1.13825 10.911 1.05543 11.2812L0.343674 14.4631C0.183716 15.1782 0.821781 15.8168 1.53701 15.6575L4.72151 14.948C5.09242 14.8654 5.43212 14.6788 5.70082 14.4101L12.4771 7.63385L12.5396 7.69635L13.325 6.91092L13.2625 6.84842L14.5896 5.52133C15.3707 4.74028 15.3707 3.47395 14.5896 2.69291L13.3109 1.41416ZM13.2625 6.84842L9.15533 2.74125L8.36991 3.52668L12.4771 7.63385L13.2625 6.84842Z" />
</svg>
