<svg width="18" height="18" viewBox="0 0 18 18" fill="none" xmlns="http://www.w3.org/2000/svg">
<g opacity="0.54">
<circle cx="9" cy="9" r="8.5" stroke="#002387"/>
<path d="M8.11504 10.4805C8.13262 8.94531 8.58379 8.47656 9.35723 7.99609C9.84941 7.69727 10.2244 7.26367 10.2244 6.64844C10.2244 5.91602 9.66191 5.45312 8.95879 5.45312C8.32598 5.45312 7.71074 5.83984 7.65801 6.70703H6.39238C6.43926 5.21289 7.56426 4.39844 8.95879 4.39844C10.4822 4.39844 11.5018 5.3125 11.5018 6.64844C11.5018 7.5918 11.0506 8.21875 10.3064 8.67578C9.60332 9.10352 9.32793 9.52539 9.31035 10.4805V10.5508H8.11504V10.4805ZM7.92754 12.25C7.92168 11.793 8.30254 11.418 8.75957 11.418C9.21074 11.418 9.58574 11.793 9.5916 12.25C9.58574 12.707 9.21074 13.0762 8.75957 13.082C8.30254 13.0762 7.92168 12.707 7.92754 12.25Z" fill="#002387"/>
</g>
</svg>
