<svg width="18" height="18" viewBox="0 0 18 18" fill="none" xmlns="http://www.w3.org/2000/svg">
<g clip-path="url(#clip0_533_4958)">
<path d="M9.16763 2.33348C10.0739 2.33638 10.9707 2.51463 11.8059 2.85792C12.6412 3.20121 13.3984 3.70272 14.0336 4.33342H11.9006C11.7194 4.33342 11.5456 4.40365 11.4175 4.52868C11.2893 4.6537 11.2173 4.82326 11.2173 5.00007C11.2173 5.17687 11.2893 5.34644 11.4175 5.47146C11.5456 5.59648 11.7194 5.66671 11.9006 5.66671H14.7312C15.0677 5.66654 15.3903 5.53605 15.6282 5.30393C15.8661 5.0718 15.9998 4.75702 16 4.42875V1.66683C16 1.49003 15.928 1.32046 15.7999 1.19544C15.6718 1.07042 15.498 1.00018 15.3168 1.00018C15.1356 1.00018 14.9618 1.07042 14.8336 1.19544C14.7055 1.32046 14.6335 1.49003 14.6335 1.66683V3.05212C13.5042 2.05979 12.1141 1.39378 10.6189 1.12868C9.12363 0.86358 7.58226 1.00986 6.16739 1.55113C4.75251 2.09241 3.52 3.00731 2.60787 4.19337C1.69575 5.37944 1.14003 6.78984 1.00294 8.26663C0.994116 8.35947 1.00521 8.45308 1.03551 8.5415C1.06581 8.62993 1.11465 8.71122 1.17893 8.78021C1.2432 8.8492 1.3215 8.90436 1.40884 8.9422C1.49617 8.98003 1.59062 8.9997 1.68618 8.99995C1.85329 9.00202 2.01518 8.94317 2.14016 8.83491C2.26514 8.72666 2.34421 8.57678 2.3619 8.41463C2.514 6.75518 3.29655 5.21119 4.55583 4.08598C5.81511 2.96077 7.46009 2.33567 9.16763 2.33348Z" fill="#002387" stroke="#002387" stroke-width="0.8"/>
<path d="M16.3145 9.00005C16.1474 8.99798 15.9855 9.05683 15.8605 9.16508C15.7355 9.27334 15.6565 9.42322 15.6388 9.58537C15.5258 10.8542 15.0423 12.0647 14.2454 13.0734C13.4486 14.0821 12.3719 14.8466 11.1432 15.2762C9.91444 15.7059 8.58517 15.7826 7.31309 15.4973C6.04101 15.212 4.8795 14.5766 3.96636 13.6666H6.09942C6.28063 13.6666 6.45441 13.5963 6.58255 13.4713C6.71068 13.3463 6.78266 13.1767 6.78266 12.9999C6.78266 12.8231 6.71068 12.6536 6.58255 12.5285C6.45441 12.4035 6.28063 12.3333 6.09942 12.3333H3.26877C3.10213 12.3332 2.9371 12.3652 2.78313 12.4273C2.62915 12.4895 2.48925 12.5807 2.37141 12.6957C2.25358 12.8107 2.16013 12.9472 2.0964 13.0974C2.03267 13.2476 1.99991 13.4087 2 13.5713V16.3332C2 16.51 2.07198 16.6795 2.20012 16.8046C2.32825 16.9296 2.50203 16.9998 2.68324 16.9998C2.86444 16.9998 3.03823 16.9296 3.16636 16.8046C3.29449 16.6795 3.36647 16.51 3.36647 16.3332V14.9479C4.49575 15.9402 5.88585 16.6062 7.38111 16.8713C8.87637 17.1364 10.4177 16.9901 11.8326 16.4489C13.2475 15.9076 14.48 14.9927 15.3921 13.8066C16.3042 12.6206 16.86 11.2102 16.9971 9.73337C17.0059 9.64053 16.9948 9.54692 16.9645 9.4585C16.9342 9.37007 16.8853 9.28878 16.8211 9.21979C16.7568 9.1508 16.6785 9.09564 16.5912 9.0578C16.5038 9.01997 16.4094 9.0003 16.3138 9.00005H16.3145Z" fill="#002387" stroke="#002387" stroke-width="0.8"/>
</g>
<defs>
<clipPath id="clip0_533_4958">
<rect width="18" height="18" fill="white"/>
</clipPath>
</defs>
</svg>
