<svg width="58" height="58" viewBox="0 0 58 58" fill="none" xmlns="http://www.w3.org/2000/svg">
<path d="M29 0C23.2644 0 17.6575 1.70082 12.8885 4.88738C8.11945 8.07394 4.40245 12.6031 2.20751 17.9022C0.0125653 23.2012 -0.561731 29.0322 0.55724 34.6576C1.67621 40.2831 4.43819 45.4504 8.49392 49.5061C12.5496 53.5618 17.7169 56.3238 23.3424 57.4428C28.9678 58.5618 34.7988 57.9875 40.0978 55.7925C45.3969 53.5976 49.9261 49.8806 53.1126 45.1115C56.2992 40.3425 58 34.7357 58 29C57.9917 21.3113 54.9337 13.9398 49.4969 8.50309C44.0602 3.06634 36.6887 0.00831595 29 0V0ZM19.3333 19.3333C20.6152 19.3333 21.8446 19.8426 22.751 20.749C23.6575 21.6554 24.1667 22.8848 24.1667 24.1667C24.1667 26.5833 22.0038 26.5833 19.3333 26.5833C16.6629 26.5833 14.5 26.5833 14.5 24.1667C14.5 22.8848 15.0092 21.6554 15.9157 20.749C16.8221 19.8426 18.0515 19.3333 19.3333 19.3333V19.3333ZM42.8862 42.6953C42.4598 43.1723 41.8617 43.4608 41.2229 43.4975C40.5841 43.5342 39.9569 43.3161 39.4787 42.891C36.5242 40.4039 32.8534 38.924 29 38.6667C25.1466 38.9237 21.4756 40.4036 18.5213 42.891C18.0426 43.3172 17.4141 43.5358 16.7741 43.4986C16.1342 43.4615 15.5352 43.1716 15.109 42.6928C14.6828 42.2141 14.4642 41.5856 14.5014 40.9456C14.5385 40.3057 14.8284 39.7067 15.3072 39.2805C19.1445 36.0022 23.9594 34.0868 29 33.8333C34.0407 34.0868 38.8555 36.0022 42.6928 39.2805C42.93 39.4919 43.1231 39.748 43.2611 40.034C43.3992 40.3201 43.4795 40.6306 43.4975 40.9478C43.5154 41.265 43.4707 41.5825 43.3658 41.8824C43.2609 42.1822 43.0979 42.4585 42.8862 42.6953ZM38.6667 26.5833C35.9963 26.5833 33.8333 26.5833 33.8333 24.1667C33.8333 22.8848 34.3426 21.6554 35.249 20.749C36.1554 19.8426 37.3848 19.3333 38.6667 19.3333C39.9486 19.3333 41.1779 19.8426 42.0844 20.749C42.9908 21.6554 43.5 22.8848 43.5 24.1667C43.5 26.5833 41.3371 26.5833 38.6667 26.5833Z" fill="white" fill-opacity="0.6"/>
</svg>
