<svg width="16" height="16" viewBox="0 0 16 16" xmlns="http://www.w3.org/2000/svg">
<g clip-path="url(#clip0_529_6327)">
<path d="M15.8026 14.8628L11.8232 10.8835C12.9077 9.55723 13.4408 7.86489 13.3125 6.15654C13.1841 4.44819 12.404 2.85452 11.1336 1.70518C9.86321 0.555838 8.19963 -0.0612406 6.487 -0.0184194C4.77436 0.0244018 3.1437 0.723847 1.93231 1.93524C0.720917 3.14663 0.0214721 4.77729 -0.0213491 6.48993C-0.0641703 8.20256 0.552909 9.86614 1.70225 11.1366C2.85159 12.407 4.44526 13.187 6.15361 13.3154C7.86196 13.4438 9.5543 12.9106 10.8806 11.8262L14.8599 15.8055C14.9856 15.9269 15.154 15.9941 15.3288 15.9926C15.5036 15.9911 15.6708 15.921 15.7944 15.7974C15.9181 15.6738 15.9882 15.5066 15.9897 15.3318C15.9912 15.157 15.924 14.9886 15.8026 14.8628ZM6.66457 12.0008C5.60973 12.0008 4.57859 11.688 3.70153 11.102C2.82446 10.516 2.14088 9.68301 1.73721 8.70848C1.33354 7.73394 1.22793 6.66158 1.43371 5.62702C1.6395 4.59245 2.14745 3.64214 2.89333 2.89626C3.63921 2.15038 4.58952 1.64243 5.62409 1.43664C6.65865 1.23085 7.73101 1.33647 8.70555 1.74014C9.68009 2.14381 10.513 2.82739 11.0991 3.70446C11.6851 4.58152 11.9979 5.61266 11.9979 6.6675C11.9963 8.0815 11.4339 9.43713 10.4341 10.437C9.4342 11.4368 8.07857 11.9992 6.66457 12.0008Z"/>
</g>
<defs>
<clipPath id="clip0_529_6327">
<rect width="16" height="16" fill="white"/>
</clipPath>
</defs>
</svg>
