<svg viewBox="0 0 24 24" fill="none" xmlns="http://www.w3.org/2000/svg">
<path d="M0 12C0 18.6274 5.37258 24 12 24C18.6274 24 24 18.6274 24 12C24 5.37258 18.6274 0 12 0C5.37258 0 0 5.37258 0 12Z" fill="#231E1B"/>
<path fill-rule="evenodd" clip-rule="evenodd" d="M11.9817 6.14453C8.6789 6.14453 6 8.82343 6 12.1262C6 14.7684 7.72477 17.0069 10.0734 17.8143C10.367 17.851 10.4771 17.6675 10.4771 17.5207C10.4771 17.3739 10.4771 17.0069 10.4771 16.4932C8.82569 16.8601 8.45872 15.6858 8.45872 15.6858C8.20183 14.9886 7.79817 14.8051 7.79817 14.8051C7.24771 14.4381 7.83486 14.4381 7.83486 14.4381C8.42202 14.4748 8.75229 15.062 8.75229 15.062C9.30275 15.9794 10.1468 15.7225 10.4771 15.5757C10.5138 15.1721 10.6972 14.9152 10.844 14.7684C9.52294 14.6216 8.12844 14.1078 8.12844 11.7959C8.12844 11.1354 8.34862 10.6216 8.75229 10.1812C8.7156 10.0711 8.49541 9.44728 8.82569 8.63994C8.82569 8.63994 9.33945 8.49316 10.4771 9.2638C10.9541 9.11701 11.4679 9.08031 11.9817 9.08031C12.4954 9.08031 13.0092 9.15371 13.4862 9.2638C14.6239 8.49316 15.1376 8.63994 15.1376 8.63994C15.4679 9.44728 15.2477 10.0711 15.211 10.2179C15.578 10.6216 15.8349 11.1721 15.8349 11.8326C15.8349 14.1445 14.4404 14.6216 13.1193 14.7684C13.3394 14.9519 13.5229 15.3188 13.5229 15.8693C13.5229 16.6766 13.5229 17.3005 13.5229 17.5207C13.5229 17.6675 13.633 17.851 13.9266 17.8143C16.3119 17.0069 18 14.7684 18 12.1262C17.9633 8.82343 15.2844 6.14453 11.9817 6.14453Z" fill="white"/>
</svg>
