<svg width="20" height="20" viewBox="0 0 20 20" fill="none" xmlns="http://www.w3.org/2000/svg">
<path d="M19.9 10C19.9 15.4676 15.4676 19.9 10 19.9C4.53238 19.9 0.1 15.4676 0.1 10C0.1 4.53238 4.53238 0.1 10 0.1C15.4676 0.1 19.9 4.53238 19.9 10Z" fill="white" stroke="#D6D6D6" stroke-width="0.2"/>
<path fill-rule="evenodd" clip-rule="evenodd" d="M14.8938 10.1135C14.8938 9.759 14.8619 9.41809 14.8029 9.09082H10.0938V11.0249H12.7847C12.6688 11.6499 12.3165 12.1795 11.7869 12.534V13.7886H13.4028C14.3483 12.9181 14.8938 11.6363 14.8938 10.1135Z" fill="#4285F4"/>
<path fill-rule="evenodd" clip-rule="evenodd" d="M10.0932 15.0002C11.4432 15.0002 12.575 14.5525 13.4023 13.7888L11.7864 12.5343C11.3386 12.8343 10.7659 13.0116 10.0932 13.0116C8.79092 13.0116 7.68864 12.132 7.29546 10.9502H5.625V12.2457C6.44773 13.8797 8.13864 15.0002 10.0932 15.0002Z" fill="#34A853"/>
<path fill-rule="evenodd" clip-rule="evenodd" d="M7.29603 10.9503C7.19603 10.6503 7.13921 10.3299 7.13921 10.0003C7.13921 9.6708 7.19603 9.35034 7.29603 9.05034V7.75488H5.62557C5.28693 8.42988 5.09375 9.19352 5.09375 10.0003C5.09375 10.8072 5.28693 11.5708 5.62557 12.2458L7.29603 10.9503Z" fill="#FBBC05"/>
<path fill-rule="evenodd" clip-rule="evenodd" d="M10.0932 6.98864C10.8273 6.98864 11.4864 7.24091 12.0046 7.73637L13.4387 6.30228C12.5727 5.49546 11.4409 5 10.0932 5C8.13864 5 6.44773 6.12046 5.625 7.75455L7.29546 9.05001C7.68864 7.86819 8.79092 6.98864 10.0932 6.98864Z" fill="#EA4335"/>
</svg>
