<svg viewBox="0 0 24 24" fill="none" xmlns="http://www.w3.org/2000/svg">
<rect width="24" height="24" rx="12" fill="url(#paint0_linear_1161_7525)"/>
<path d="M9.89114 12.0725C9.89114 10.8662 10.8694 9.88799 12.0764 9.88799C13.2835 9.88799 14.2622 10.8662 14.2622 12.0725C14.2622 13.2788 13.2835 14.257 12.0764 14.257C10.8694 14.257 9.89114 13.2788 9.89114 12.0725ZM8.70953 12.0725C8.70953 13.9309 10.2169 15.4373 12.0764 15.4373C13.9359 15.4373 15.4433 13.9309 15.4433 12.0725C15.4433 10.2141 13.9359 8.70762 12.0764 8.70762C10.2169 8.70762 8.70953 10.2141 8.70953 12.0725ZM14.7898 8.5742C14.7897 8.72973 14.8358 8.88178 14.9222 9.01113C15.0086 9.14048 15.1314 9.24132 15.2752 9.30089C15.4189 9.36047 15.5771 9.3761 15.7298 9.34582C15.8824 9.31554 16.0226 9.2407 16.1327 9.13077C16.2428 9.02085 16.3178 8.88076 16.3482 8.72824C16.3786 8.57571 16.3631 8.41759 16.3036 8.27388C16.2441 8.13017 16.1433 8.00732 16.014 7.92086C15.8846 7.8344 15.7325 7.78822 15.5769 7.78816H15.5766C15.368 7.78826 15.168 7.8711 15.0204 8.01848C14.8729 8.16586 14.7899 8.36573 14.7898 8.5742ZM9.42743 17.4064C8.78816 17.3773 8.4407 17.2709 8.20979 17.181C7.90367 17.0619 7.68524 16.92 7.4556 16.6908C7.22595 16.4616 7.08379 16.2436 6.96514 15.9376C6.87513 15.707 6.76864 15.3596 6.73958 14.7207C6.7078 14.03 6.70145 13.8225 6.70145 12.0725C6.70145 10.3226 6.70832 10.1157 6.73958 9.42436C6.7687 8.78547 6.87597 8.43879 6.96514 8.20745C7.08432 7.9015 7.22626 7.68321 7.4556 7.4537C7.68493 7.22419 7.90314 7.08212 8.20979 6.96354C8.4406 6.87358 8.78816 6.76716 9.42743 6.73812C10.1186 6.70635 10.3262 6.70001 12.0764 6.70001C13.8266 6.70001 14.0345 6.70687 14.7262 6.73812C15.3655 6.76721 15.7123 6.87442 15.9438 6.96354C16.2499 7.08212 16.4684 7.2245 16.698 7.4537C16.9277 7.6829 17.0693 7.9015 17.1885 8.20745C17.2785 8.43811 17.385 8.78547 17.414 9.42436C17.4458 10.1157 17.4522 10.3226 17.4522 12.0725C17.4522 13.8225 17.4458 14.0294 17.414 14.7207C17.3849 15.3596 17.2779 15.7069 17.1885 15.9376C17.0693 16.2436 16.9274 16.4619 16.698 16.6908C16.4687 16.9198 16.2499 17.0619 15.9438 17.181C15.713 17.271 15.3655 17.3774 14.7262 17.4064C14.035 17.4382 13.8274 17.4445 12.0764 17.4445C10.3254 17.4445 10.1184 17.4382 9.42743 17.4064ZM9.37314 5.55922C8.67512 5.59098 8.19815 5.7016 7.7816 5.86359C7.35021 6.03087 6.98502 6.2553 6.62009 6.61943C6.25516 6.98357 6.03118 7.34912 5.86379 7.78025C5.70171 8.1968 5.59103 8.67323 5.55924 9.37083C5.52693 10.0695 5.51953 10.2929 5.51953 12.0725C5.51953 13.8521 5.52693 14.0754 5.55924 14.7741C5.59103 15.4718 5.70171 15.9482 5.86379 16.3647C6.03118 16.7956 6.25521 17.1616 6.62009 17.5255C6.98497 17.8895 7.35021 18.1136 7.7816 18.2814C8.19894 18.4434 8.67512 18.554 9.37314 18.5857C10.0726 18.6175 10.2958 18.6254 12.0764 18.6254C13.8571 18.6254 14.0806 18.618 14.7797 18.5857C15.4778 18.554 15.9544 18.4434 16.3712 18.2814C16.8024 18.1136 17.1678 17.8897 17.5327 17.5255C17.8977 17.1614 18.1212 16.7956 18.289 16.3647C18.4511 15.9482 18.5623 15.4717 18.5936 14.7741C18.6254 14.0749 18.6328 13.8521 18.6328 12.0725C18.6328 10.2929 18.6254 10.0695 18.5936 9.37083C18.5618 8.67318 18.4511 8.19654 18.289 7.78025C18.1212 7.34938 17.8971 6.98414 17.5327 6.61943C17.1684 6.25472 16.8024 6.03087 16.3718 5.86359C15.9544 5.7016 15.4777 5.59046 14.7802 5.55922C14.0811 5.52745 13.8576 5.51953 12.0769 5.51953C10.2963 5.51953 10.0726 5.52692 9.37314 5.55922Z" fill="white"/>
<path d="M9.89114 12.0725C9.89114 10.8662 10.8694 9.88799 12.0764 9.88799C13.2835 9.88799 14.2622 10.8662 14.2622 12.0725C14.2622 13.2788 13.2835 14.257 12.0764 14.257C10.8694 14.257 9.89114 13.2788 9.89114 12.0725ZM8.70953 12.0725C8.70953 13.9309 10.2169 15.4373 12.0764 15.4373C13.9359 15.4373 15.4433 13.9309 15.4433 12.0725C15.4433 10.2141 13.9359 8.70762 12.0764 8.70762C10.2169 8.70762 8.70953 10.2141 8.70953 12.0725ZM14.7898 8.5742C14.7897 8.72973 14.8358 8.88178 14.9222 9.01113C15.0086 9.14048 15.1314 9.24132 15.2752 9.30089C15.4189 9.36047 15.5771 9.3761 15.7298 9.34582C15.8824 9.31554 16.0226 9.2407 16.1327 9.13077C16.2428 9.02085 16.3178 8.88076 16.3482 8.72824C16.3786 8.57571 16.3631 8.41759 16.3036 8.27388C16.2441 8.13017 16.1433 8.00732 16.014 7.92086C15.8846 7.8344 15.7325 7.78822 15.5769 7.78816H15.5766C15.368 7.78826 15.168 7.8711 15.0204 8.01848C14.8729 8.16586 14.7899 8.36573 14.7898 8.5742ZM9.42743 17.4064C8.78816 17.3773 8.4407 17.2709 8.20979 17.181C7.90367 17.0619 7.68524 16.92 7.4556 16.6908C7.22595 16.4616 7.08379 16.2436 6.96514 15.9376C6.87513 15.707 6.76864 15.3596 6.73958 14.7207C6.7078 14.03 6.70145 13.8225 6.70145 12.0725C6.70145 10.3226 6.70832 10.1157 6.73958 9.42436C6.7687 8.78547 6.87597 8.43879 6.96514 8.20745C7.08432 7.9015 7.22626 7.68321 7.4556 7.4537C7.68493 7.22419 7.90314 7.08212 8.20979 6.96354C8.4406 6.87358 8.78816 6.76716 9.42743 6.73812C10.1186 6.70635 10.3262 6.70001 12.0764 6.70001C13.8266 6.70001 14.0345 6.70687 14.7262 6.73812C15.3655 6.76721 15.7123 6.87442 15.9438 6.96354C16.2499 7.08212 16.4684 7.2245 16.698 7.4537C16.9277 7.6829 17.0693 7.9015 17.1885 8.20745C17.2785 8.43811 17.385 8.78547 17.414 9.42436C17.4458 10.1157 17.4522 10.3226 17.4522 12.0725C17.4522 13.8225 17.4458 14.0294 17.414 14.7207C17.3849 15.3596 17.2779 15.7069 17.1885 15.9376C17.0693 16.2436 16.9274 16.4619 16.698 16.6908C16.4687 16.9198 16.2499 17.0619 15.9438 17.181C15.713 17.271 15.3655 17.3774 14.7262 17.4064C14.035 17.4382 13.8274 17.4445 12.0764 17.4445C10.3254 17.4445 10.1184 17.4382 9.42743 17.4064ZM9.37314 5.55922C8.67512 5.59098 8.19815 5.7016 7.7816 5.86359C7.35021 6.03087 6.98502 6.2553 6.62009 6.61943C6.25516 6.98357 6.03118 7.34912 5.86379 7.78025C5.70171 8.1968 5.59103 8.67323 5.55924 9.37083C5.52693 10.0695 5.51953 10.2929 5.51953 12.0725C5.51953 13.8521 5.52693 14.0754 5.55924 14.7741C5.59103 15.4718 5.70171 15.9482 5.86379 16.3647C6.03118 16.7956 6.25521 17.1616 6.62009 17.5255C6.98497 17.8895 7.35021 18.1136 7.7816 18.2814C8.19894 18.4434 8.67512 18.554 9.37314 18.5857C10.0726 18.6175 10.2958 18.6254 12.0764 18.6254C13.8571 18.6254 14.0806 18.618 14.7797 18.5857C15.4778 18.554 15.9544 18.4434 16.3712 18.2814C16.8024 18.1136 17.1678 17.8897 17.5327 17.5255C17.8977 17.1614 18.1212 16.7956 18.289 16.3647C18.4511 15.9482 18.5623 15.4717 18.5936 14.7741C18.6254 14.0749 18.6328 13.8521 18.6328 12.0725C18.6328 10.2929 18.6254 10.0695 18.5936 9.37083C18.5618 8.67318 18.4511 8.19654 18.289 7.78025C18.1212 7.34938 17.8971 6.98414 17.5327 6.61943C17.1684 6.25472 16.8024 6.03087 16.3718 5.86359C15.9544 5.7016 15.4777 5.59046 14.7802 5.55922C14.0811 5.52745 13.8576 5.51953 12.0769 5.51953C10.2963 5.51953 10.0726 5.52692 9.37314 5.55922Z" fill="white"/>
<defs>
<linearGradient id="paint0_linear_1161_7525" x1="23.5387" y1="24" x2="-0.461279" y2="-6.46012e-07" gradientUnits="userSpaceOnUse">
<stop stop-color="#FBE18A"/>
<stop offset="0.21" stop-color="#FCBB45"/>
<stop offset="0.38" stop-color="#F75274"/>
<stop offset="0.52" stop-color="#D53692"/>
<stop offset="0.74" stop-color="#8F39CE"/>
<stop offset="1" stop-color="#5B4FE9"/>
</linearGradient>
</defs>
</svg>
