<svg width="20" height="20" viewBox="0 0 20 20" fill="none" xmlns="http://www.w3.org/2000/svg">
<path d="M0 10C0 15.5228 4.47715 20 10 20C15.5228 20 20 15.5228 20 10C20 4.47715 15.5228 0 10 0C4.47715 0 0 4.47715 0 10Z" fill="#E60023"/>
<path d="M10 5C7.25 5 5 7.25 5 10C5 12.0625 6.25 13.8125 8 14.5625C8 14.1875 8 13.8125 8.0625 13.4375C8.1875 13 8.6875 10.6875 8.6875 10.6875C8.6875 10.6875 8.5 10.375 8.5 9.875C8.5 9.125 8.9375 8.5625 9.4375 8.5625C9.875 8.5625 10.125 8.875 10.125 9.3125C10.125 9.75 9.8125 10.4375 9.6875 11.0625C9.5625 11.5625 9.9375 12 10.5 12C11.4375 12 12.0625 10.8125 12.0625 9.3125C12.0625 8.1875 11.3125 7.375 10 7.375C8.5 7.375 7.5625 8.5 7.5625 9.75C7.5625 10.1875 7.6875 10.5 7.875 10.75C7.9375 10.875 8 10.875 7.9375 11C7.9375 11.0625 7.875 11.3125 7.8125 11.375C7.75 11.5 7.6875 11.5625 7.5625 11.5C6.875 11.1875 6.5625 10.4375 6.5625 9.5625C6.5625 8.125 7.75 6.4375 10.125 6.4375C12.0625 6.4375 13.3125 7.8125 13.3125 9.3125C13.3125 11.25 12.25 12.75 10.625 12.75C10.0625 12.75 9.5625 12.4375 9.375 12.125C9.375 12.125 9.0625 13.25 9 13.5C8.875 13.875 8.6875 14.25 8.5 14.5625C8.9375 14.6875 9.4375 14.75 9.9375 14.75C12.6875 14.75 14.9375 12.5 14.9375 9.75C15 7.25 12.75 5 10 5Z" fill="white"/>
</svg>
