<svg width="20" height="22" viewBox="0 0 20 22" fill="none" xmlns="http://www.w3.org/2000/svg">
<path d="M0 10.8733C0 16.8784 4.47715 21.7465 10 21.7465C15.5228 21.7465 20 16.8784 20 10.8733C20 4.86812 15.5228 0 10 0C4.47715 0 0 4.86812 0 10.8733Z" fill="#0078D7"/>
<path d="M10 14.1351C8.3125 14.1351 7.56248 13.1837 7.56248 12.5041C7.56248 12.3682 7.62502 12.1643 7.75002 12.0964C7.87502 11.9605 8 11.9605 8.125 11.9605C8.8125 11.9605 8.625 13.1158 10 13.1158C10.6875 13.1158 11.0625 12.6401 11.0625 12.2323C11.0625 11.9605 10.9375 11.6886 10.5 11.5527L9.00002 11.145C7.81252 10.8052 7.62501 10.0577 7.62501 9.44604C7.62501 8.01892 8.81252 7.54322 9.93752 7.54322C10.9375 7.54322 12.1875 8.15484 12.1875 8.97033C12.1875 9.31012 11.9375 9.51399 11.5625 9.51399C10.9375 9.51399 11.0625 8.56258 9.81251 8.56258C9.18751 8.56258 8.87501 8.90237 8.87501 9.31012C8.87501 9.71787 9.37498 9.92174 9.74998 9.9897L10.875 10.2615C12.0625 10.5334 12.375 11.3489 12.375 12.0284C12.375 13.3196 11.5625 14.1351 10 14.1351ZM14.625 11.7566C14.6875 11.4848 14.6875 11.145 14.6875 10.8732C14.6875 9.37808 14.0625 7.95096 13 6.9316C11.9375 5.91223 10.5 5.57244 9.12498 5.77631C8.74998 5.57244 8.25002 5.43652 7.75002 5.43652C6.75002 5.43652 5.8125 6.04814 5.3125 6.99955C4.8125 7.95096 4.8125 9.10625 5.3125 10.0577C5.0625 11.6886 5.49998 13.3876 6.62498 14.6108C7.68748 15.7661 9.25001 16.3098 10.75 16.0379C11.1875 16.3098 11.625 16.4457 12.125 16.4457C13.125 16.4457 14.0625 15.8341 14.5625 14.8827C15.0625 13.8633 15.125 12.708 14.625 11.7566Z" fill="white"/>
</svg>
