<svg width="20" height="20" viewBox="0 0 20 20" fill="none" xmlns="http://www.w3.org/2000/svg">
<path d="M0 10C0 15.5228 4.47715 20 10 20C15.5228 20 20 15.5228 20 10C20 4.47715 15.5228 0 10 0C4.47715 0 0 4.47715 0 10Z" fill="#002387"/>
<g clip-path="url(#clip0_570_11976)">
<path d="M14.9808 7.30957L11.4733 10.8171C11.0822 11.2072 10.5524 11.4263 10 11.4263C9.44761 11.4263 8.91776 11.2072 8.52667 10.8171L5.01917 7.30957C5.01333 7.3754 5 7.43499 5 7.5004V12.5004C5.00066 13.0527 5.22037 13.5823 5.61092 13.9728C6.00148 14.3634 6.531 14.5831 7.08333 14.5837H12.9167C13.469 14.5831 13.9985 14.3634 14.3891 13.9728C14.7796 13.5823 14.9993 13.0527 15 12.5004V7.5004C15 7.43499 14.9867 7.3754 14.9808 7.30957Z" fill="white"/>
<path d="M10.8828 10.2278L14.6886 6.42158C14.5042 6.11587 14.2442 5.86284 13.9336 5.68688C13.623 5.51092 13.2723 5.41797 12.9153 5.41699H7.08193C6.72494 5.41797 6.37422 5.51092 6.0636 5.68688C5.75299 5.86284 5.49296 6.11587 5.30859 6.42158L9.11443 10.2278C9.34925 10.4617 9.66717 10.593 9.99859 10.593C10.33 10.593 10.6479 10.4617 10.8828 10.2278Z" fill="white"/>
</g>
<defs>
<clipPath id="clip0_570_11976">
<rect width="10" height="10" fill="white" transform="translate(5 5)"/>
</clipPath>
</defs>
</svg>
