<svg width="20" height="22" viewBox="0 0 20 22" fill="none" xmlns="http://www.w3.org/2000/svg">
<path d="M0 10.8733C0 16.8784 4.47715 21.7465 10 21.7465C15.5228 21.7465 20 16.8784 20 10.8733C20 4.86812 15.5228 0 10 0C4.47715 0 0 4.86812 0 10.8733Z" fill="#1DA1F2"/>
<path d="M15 7.47542C14.625 7.6793 14.25 7.74725 13.8125 7.81521C14.25 7.54338 14.5625 7.13563 14.6875 6.59197C14.3125 6.8638 13.875 6.99972 13.375 7.13563C13 6.72789 12.4375 6.45605 11.875 6.45605C10.5625 6.45605 9.5625 7.81521 9.875 9.17437C8.1875 9.10641 6.6875 8.22296 5.625 6.8638C5.0625 7.88317 5.375 9.17437 6.25 9.85395C5.9375 9.85395 5.625 9.71803 5.3125 9.58212C5.3125 10.6015 6 11.5529 6.9375 11.8247C6.625 11.8927 6.3125 11.9606 6 11.8927C6.25 12.7761 7 13.4557 7.9375 13.4557C7.1875 14.0673 6.0625 14.4071 5 14.2712C5.9375 14.8828 7 15.2906 8.125 15.2906C11.9375 15.2906 14.0625 11.8247 13.9375 8.63071C14.375 8.35887 14.75 7.95113 15 7.47542Z" fill="white"/>
</svg>
