<svg viewBox="0 0 24 24" fill="none" xmlns="http://www.w3.org/2000/svg">
<circle cx="12" cy="12" r="12" fill="#FFEE1A"/>
<g clip-path="url(#clip0_1161_7528)">
<path d="M12 6C10.8133 6 9.65328 6.35189 8.66658 7.01118C7.67989 7.67047 6.91085 8.60754 6.45673 9.7039C6.0026 10.8003 5.88378 12.0067 6.11529 13.1705C6.3468 14.3344 6.91825 15.4035 7.75736 16.2426C8.59648 17.0818 9.66558 17.6532 10.8295 17.8847C11.9933 18.1162 13.1997 17.9974 14.2961 17.5433C15.3925 17.0892 16.3295 16.3201 16.9888 15.3334C17.6481 14.3467 18 13.1867 18 12C17.9983 10.4092 17.3656 8.88411 16.2407 7.75926C15.1159 6.63441 13.5908 6.00172 12 6V6ZM16.3235 9.5H14.713C14.3525 8.66449 13.8778 7.88304 13.3025 7.178C14.5757 7.52446 15.6612 8.35874 16.3235 9.5ZM14.25 12C14.2459 12.5091 14.1657 13.0147 14.012 13.5H9.988C9.83433 13.0147 9.75411 12.5091 9.75 12C9.75411 11.4909 9.83433 10.9853 9.988 10.5H14.012C14.1657 10.9853 14.2459 11.4909 14.25 12ZM10.389 14.5H13.611C13.1866 15.3379 12.6441 16.1104 12 16.794C11.3557 16.1106 10.8131 15.338 10.389 14.5ZM10.389 9.5C10.8134 8.66214 11.3559 7.88958 12 7.206C12.6443 7.88939 13.1869 8.66198 13.611 9.5H10.389ZM10.7 7.178C10.1238 7.88289 9.64829 8.66435 9.287 9.5H7.6765C8.33943 8.35822 9.42583 7.52388 10.7 7.178ZM7.2305 10.5H8.95C8.82038 10.9896 8.75318 11.4936 8.75 12C8.75318 12.5064 8.82038 13.0104 8.95 13.5H7.2305C6.92317 12.5236 6.92317 11.4764 7.2305 10.5ZM7.6765 14.5H9.287C9.64829 15.3357 10.1238 16.1171 10.7 16.822C9.42583 16.4761 8.33943 15.6418 7.6765 14.5ZM13.3025 16.822C13.8778 16.117 14.3525 15.3355 14.713 14.5H16.3235C15.6612 15.6413 14.5757 16.4755 13.3025 16.822ZM16.7695 13.5H15.05C15.1796 13.0104 15.2468 12.5064 15.25 12C15.2468 11.4936 15.1796 10.9896 15.05 10.5H16.7685C17.0758 11.4764 17.0758 12.5236 16.7685 13.5H16.7695Z" fill="#00144B"/>
</g>
<defs>
<clipPath id="clip0_1161_7528">
<rect width="12" height="12" fill="white" transform="translate(6 6)"/>
</clipPath>
</defs>
</svg>
